<?xml version="1.0" encoding="iso-8859-1"?>
<!-- Generator: Adobe Illustrator 18.0.0, SVG Export Plug-In . SVG Version: 6.00 Build 0)  -->
<!DOCTYPE svg PUBLIC "-//W3C//DTD SVG 1.1//EN" "http://www.w3.org/Graphics/SVG/1.1/DTD/svg11.dtd">
<svg xmlns="http://www.w3.org/2000/svg" xmlns:xlink="http://www.w3.org/1999/xlink" version="1.1" id="Capa_1" x="0px" y="0px" viewBox="0 0 304.43 304.43" style="enable-background:new 0 0 304.43 304.43;" xml:space="preserve" width="512px" height="512px">
<g>
	<path d="M176.2,189.41h-47.971c-0.604,9.548-3.716,20.083-8.962,29.98c-2.266,4.273-4.859,8.296-7.69,11.963h81.275   c-2.831-3.667-5.425-7.69-7.69-11.963C179.916,209.494,176.804,198.959,176.2,189.41z" fill="#D80027"/>
	<path d="M302.819,154.39l-84.082-85.638c-4.172-4.25-9.878-6.644-15.834-6.644h-15.689V40.544c0-3.104-2.517-5.621-5.621-5.621   h-21.879v51.515c0,4.143-3.357,7.5-7.5,7.5c-4.143,0-7.5-3.357-7.5-7.5V34.923h-23.546c-3.104,0-5.621,2.517-5.621,5.621v21.564   h-14.022c-5.956,0-11.661,2.394-15.834,6.644L1.61,154.39c-2.045,2.083-2.155,5.385-0.254,7.6l17.576,20.47   c1.959,2.282,5.368,2.617,7.735,0.76l53.12-41.687L63.928,257.03c-0.432,3.144,0.518,6.321,2.603,8.712   c2.086,2.392,5.104,3.764,8.277,3.764h154.813c3.173,0,6.191-1.372,8.277-3.764c2.086-2.392,3.035-5.569,2.603-8.712   l-15.859-115.496l53.12,41.687c2.366,1.857,5.775,1.522,7.735-0.76l17.576-20.47C304.975,159.775,304.865,156.473,302.819,154.39z    M218.222,241.131c-0.991,3.11-3.881,5.223-7.146,5.223H93.353c-3.265,0-6.154-2.112-7.146-5.223   c-0.992-3.11,0.143-6.505,2.806-8.395c6.41-4.547,12.447-11.782,17-20.371c5.378-10.144,8.052-21.232,7.154-29.661   c-0.225-2.115,0.459-4.227,1.881-5.809c1.423-1.582,3.45-2.485,5.577-2.485h63.178c2.127,0,4.154,0.903,5.577,2.485   c1.422,1.582,2.105,3.693,1.881,5.809c-0.898,8.431,1.776,19.518,7.153,29.661c0,0,0,0,0.001,0c4.553,8.589,10.59,15.824,17,20.371   C218.079,234.626,219.214,238.02,218.222,241.131z" fill="#D80027"/>
</g>
<g>
</g>
<g>
</g>
<g>
</g>
<g>
</g>
<g>
</g>
<g>
</g>
<g>
</g>
<g>
</g>
<g>
</g>
<g>
</g>
<g>
</g>
<g>
</g>
<g>
</g>
<g>
</g>
<g>
</g>
</svg>
