<?xml version="1.0" encoding="iso-8859-1"?>
<!-- Generator: Adobe Illustrator 18.0.0, SVG Export Plug-In . SVG Version: 6.00 Build 0)  -->
<!DOCTYPE svg PUBLIC "-//W3C//DTD SVG 1.1//EN" "http://www.w3.org/Graphics/SVG/1.1/DTD/svg11.dtd">
<svg xmlns="http://www.w3.org/2000/svg" xmlns:xlink="http://www.w3.org/1999/xlink" version="1.1" id="Capa_1" x="0px" y="0px" viewBox="0 0 340 340" style="enable-background:new 0 0 340 340;" xml:space="preserve" width="512px" height="512px">
<g>
	<path d="M337.072,162.929l-43.935-43.934V56.863c0-5.522-4.477-10-10-10h-62.133L177.072,2.929C175.197,1.054,172.653,0,170,0   s-5.196,1.054-7.071,2.929l-43.933,43.935H56.862c-5.522,0-10,4.478-10,10v62.132L2.929,162.929   c-3.905,3.905-3.905,10.237,0,14.143l43.933,43.934v62.132c0,5.522,4.478,10,10,10h62.135l43.933,43.935   c1.875,1.875,4.419,2.929,7.071,2.929s5.196-1.054,7.071-2.929l43.933-43.935h62.133c5.523,0,10-4.478,10-10v-62.132l43.935-43.934   c1.875-1.876,2.929-4.419,2.929-7.071S338.947,164.805,337.072,162.929z M276.066,209.791c-1.875,1.876-2.929,4.419-2.929,7.071   v56.274h-56.275c-2.652,0-5.196,1.054-7.071,2.929L170,315.858l-39.79-39.792c-1.875-1.875-4.419-2.929-7.071-2.929H66.862v-56.274   c0-2.652-1.054-5.195-2.929-7.071L24.142,170l39.791-39.791c1.875-1.876,2.929-4.419,2.929-7.071V66.863h56.277   c2.652,0,5.196-1.054,7.071-2.929L170,24.143l39.79,39.792c1.875,1.875,4.419,2.929,7.071,2.929h56.275v56.274   c0,2.652,1.054,5.195,2.929,7.071L315.858,170L276.066,209.791z" fill="#D80027"/>
	<path d="M144.83,115.734c0.322-0.019,0.613-0.192,0.785-0.464c0.172-0.271,0.203-0.609,0.082-0.907l-6.416-15.966   c-0.115-0.288-0.357-0.506-0.658-0.59c-0.301-0.085-0.619-0.024-0.869,0.162c-0.992,0.744-2.121,1.463-3.316,2.225   c-2.539,1.616-5.164,3.287-6.898,5.466c-0.242,0.304-0.287,0.72-0.113,1.067c5.41,10.93,3.344,28.062,1.684,41.83   c-0.385,3.197-0.748,6.217-0.994,8.947c-0.877,9.761-8.896,14.13-16.455,14.13c-5.471,0-10.238-2.325-12.439-6.069   c-2.355-4.005-1.807-9.348,1.586-15.449c0.193-0.346,0.164-0.773-0.076-1.089c-0.213-0.282-0.541-0.444-0.9-0.444   c-2.332,0-11.873,13.885-12.369,24.28c-0.268,5.618,1.93,12.555,13.918,13.699c1.063,0.102,2.186,0.153,3.338,0.153   c11.619,0,30.594-5.632,32.035-20.742c0.211-2.215,0.322-5.809,0.453-9.971C137.61,143.057,138.451,116.118,144.83,115.734z" fill="#D80027"/>
	<path d="M259.457,159.202c-5.316-0.663-10.004-2.857-13.955-6.54c-1.568-1.39-3.166-2.875-4.713-4.313   c-4.379-4.07-8.908-8.279-13.926-11.474c-1.131-0.72-2.398-1.085-3.771-1.085c-6.902,0-14.188,8.918-14.932,14.309   c-0.352,2.556,0.697,4.373,2.881,4.988c0.4,0.11,0.83-0.035,1.078-0.371c2.195-2.99,4.309-4.444,6.459-4.444   c3,0,6.166,2.788,9.52,5.741c1.393,1.225,2.816,2.479,4.322,3.634c-5.174,0.63-10.053,0.962-14.234,0.962   c-8,0-17.645-1.197-18.152-6.896c-0.936-10.48,0.932-21.635,2.734-32.423c0.951-5.683,1.934-11.56,2.473-17.19   c0.035-0.377-0.145-0.742-0.465-0.943c-0.322-0.2-0.729-0.201-1.053-0.006c-10.105,6.162-13.633,15.363-17.367,25.104   c-2.525,6.59-5.129,13.384-9.922,19.864c-2.777-19.503-10.195-34.338-22.631-45.299c-0.266-0.234-0.639-0.312-0.973-0.199   c-0.336,0.109-0.59,0.391-0.666,0.736c-0.393,1.793-0.873,3.582-1.34,5.311c-2.393,8.875-4.652,17.259,5.818,23.564   c0.293,0.178,0.658,0.191,0.967,0.037c0.307-0.155,0.512-0.457,0.545-0.8l0.113-1.2c5.996,8.689,9.311,16.466,10.906,25.492   c-2.779,2.43-6.852,4.576-10.795,6.653c-4.959,2.612-10.084,5.312-12.842,8.694c-0.311,0.381-0.297,0.932,0.031,1.299   c3.76,4.205,7.846,6.338,12.143,6.338c14.912,0,28.258-25.32,34.352-38.929c-0.029,0.189-0.059,0.378-0.088,0.565   c-2.289,14.732-4.656,29.965,13.467,34.732c0.068,0.019,0.139,0.029,0.211,0.032c1.641,0.07,3.445,0.106,5.365,0.106h0.002   c7.279,0,43.83-0.709,49.246-14.699c0.111-0.287,0.084-0.609-0.074-0.873C260.033,159.417,259.762,159.24,259.457,159.202z" fill="#D80027"/>
	<polygon points="127.887,207.094 118.762,207.094 118.762,194.554 112.252,194.554 112.252,225.903 118.762,225.903    118.762,212.721 127.887,212.721 127.887,225.903 134.397,225.903 134.397,194.554 127.887,194.554  " fill="#D80027"/>
	<path d="M145.053,194.474l-7.838,31.43h6.992l1.488-6.752h7.676l1.527,6.752h6.953l-7.836-31.43H145.053z M146.942,213.525   l2.572-11.535l2.572,11.535H146.942z" fill="#D80027"/>
	<polygon points="171.18,194.554 164.67,194.554 164.67,225.903 182.756,225.903 182.756,220.277 171.18,220.277  " fill="#D80027"/>
	<path d="M191.762,194.474l-7.838,31.43h6.994l1.486-6.752h7.678l1.527,6.752h6.953l-7.838-31.43H191.762z M193.651,213.525   l2.572-11.535l2.572,11.535H193.651z" fill="#D80027"/>
	<polygon points="217.891,194.554 211.379,194.554 211.379,225.903 229.465,225.903 229.465,220.277 217.891,220.277  " fill="#D80027"/>
</g>
<g>
</g>
<g>
</g>
<g>
</g>
<g>
</g>
<g>
</g>
<g>
</g>
<g>
</g>
<g>
</g>
<g>
</g>
<g>
</g>
<g>
</g>
<g>
</g>
<g>
</g>
<g>
</g>
<g>
</g>
</svg>
