<?xml version="1.0" encoding="iso-8859-1"?>
<!-- Generator: Adobe Illustrator 19.0.0, SVG Export Plug-In . SVG Version: 6.00 Build 0)  -->
<svg xmlns="http://www.w3.org/2000/svg" xmlns:xlink="http://www.w3.org/1999/xlink" version="1.1" id="Capa_1" x="0px" y="0px" viewBox="0 0 115.283 115.283" style="enable-background:new 0 0 115.283 115.283;" xml:space="preserve" width="512px" height="512px">
<g id="_x30_101-sun-smile-glasses-icon">
	<g>
		<path style="fill-rule:evenodd;clip-rule:evenodd;" d="M58.689,15.599c2.678-0.339,2.464-3.567,3.016-6.032    c0.657-0.906,0.903-2.224,1.005-3.687c0.549-1.145,0.393-2.887-0.335-3.686h-1.005c-1.312,0.812-1.974,2.271-3.017,3.351    c-0.299,1.936-1.078,3.39-1.34,5.361C56.997,13.045,56.642,15.523,58.689,15.599z M30.875,24.311    c0.943-3.514-2.313-5.424-3.685-7.707c-1.837-2.185-2.64-5.403-5.697-6.367c-1.365,0.197-2.147,0.979-2.345,2.346    C18.578,16.513,26.872,25.598,30.875,24.311z M105.087,12.657c-0.303-0.647-1.013-1.027-2.315-0.881    c-2.313,0.26-5.188,2.618-6.955,4.058c-2.213,1.802-4.487,3.646-5.966,6.132c-0.987,1.082-1.976,3.591-0.67,5.026    c2.598,1.122,4.745-1.815,6.517-3.248c2.35-1.897,4.916-3.511,7.223-5.464C104.291,17.118,105.79,14.163,105.087,12.657z     M51.98,25.556c-3.347,0.236-6.637,1.112-9.738,2.858c-2.064,1.163-6.221,2.784-7.681,4.274    c-5.397,5.508-10.236,12.544-11.816,20.213c-1.687,8.188,1.853,16.116,5.375,23.311C34.89,90.039,48.526,91.058,62.374,90.66    c4.72-0.754,9.268-1.678,12.733-3.686c4.036-1.549,6.909-4.263,10.053-6.702c2.561-4.031,5.131-8.051,6.367-13.404    c1.58-6.839-0.24-14.546-3.017-20.775C82.659,32.962,66.024,24.564,51.98,25.556z M79.129,77.591    c-4.786,3.993-13.239,7.708-22.116,7.708c-4.318,0-9.615-1.492-13.505-3.301c-7.547-3.51-12.557-11.063-14.007-19.146    c-1.346-7.501,1.446-18.06,7.506-23.203c3.836-3.255,8.355-6.927,13.507-7.595c0.264-0.035,0.527-0.065,0.794-0.092    c4.434-0.448,9.97,0.534,14.242,1.711c3.742,1.031,7.716,3.081,10.703,5.548c5.173,4.273,8.47,10.93,9.394,17.521    C86.579,63.396,84.616,73.013,79.129,77.591z M15.369,51.131c0.321-0.761-7.054-6.07-7.902-6.518    C5.92,43.799,1.666,42.106,0.326,44c-1.876,2.663,4.884,5.957,6.422,6.784C8.732,51.85,13.99,54.351,15.369,51.131z     M68.479,45.767c-4.262-0.071-8.52-0.288-12.781-0.266c-3.021,0.017-6.04,0.046-9.06,0.044c-1.522-0.001-3.045-0.009-4.566-0.028    c-1.163-0.017-3.435-0.529-4.494-0.096c-0.396,0.163-0.76,0.357-1.005,0.671c-1.366,1.1-0.615,2.44-1.006,4.691    c0.282,2.398,1.146,4.215,2.011,6.031c0.843,1.77,5.127,2.731,6.787,2.764c3.105,0.057,5.273-1.796,7.093-4.159    c0.528-0.687,2.496-5.642,2.876-5.642h5.695c-1.244,0,1.994,5.879,2.448,6.32c1.786,1.735,4.274,2.803,6.747,3.015    c6.641,0.568,11.229-6.574,9.235-12.686C77.972,44.934,69.733,45.789,68.479,45.767z M49.111,54.114    c-0.924,0.129-1.475-0.499-1.656-1.351c-0.39-1.823,0.911-4.672,3.859-3.321C53.25,50.329,50.442,53.928,49.111,54.114z     M74.027,53.964c-1.545-0.151-1.935-2.387-1.587-3.597c0.375-1.31,3.766-3.397,4.008-0.924    C76.59,50.899,76.289,54.185,74.027,53.964z M105.601,55.81c1.618-0.312,3.242-0.657,4.692-1.341    c1.297-0.611,3.159-1.278,3.015-3.351c-1.108-1.461-3.239-1.897-5.696-2.011c-3.937,1.201-10.485-0.21-11.058,4.356    C96.916,56.999,102.273,56.219,105.601,55.81z M77.788,60.502c-0.428,0.019-0.464,0.429-1.005,0.335    c-3.308,1.384-5.87,3.513-9.718,4.356c-3.76,2.012-9.101,1.991-13.274,1.888c-4.584-0.113-9.154-1.106-13.065-3.585    c-1.179-0.746-4.702-2.931-4.575,0.021c0.15,3.483,5.258,6.043,8.136,6.768c4.511,1.135,9.73,2.087,14.401,1.609    c4.763-0.487,9.011-1.488,12.732-3.016c1.632-0.938,3.667-1.472,4.692-3.016c1.39-0.91,3.277-2.887,2.346-5.026    C78.122,60.838,78.06,60.565,77.788,60.502z M17.694,78.933c-3.13,0.053-17.371,7.622-12.008,11.559    c2.524,1.853,4.478-0.868,6.168-2.446c2.046-1.91,4.895-1.873,6.644-4.11c0.614-0.786,1.145-2.275,1.014-3.426    C19.408,79.606,18.897,78.912,17.694,78.933z M112.197,88.197c-1.62-1.298-3.651-2.784-5.571-3.592    c-2.221-0.936-9.556-2.324-5.541,1.969c1.516,1.621,3.454,2.924,5.237,4.233c2.208,1.623,5.682,4.413,8.577,2.805    C116.466,92.742,112.764,88.65,112.197,88.197z M46.358,95.236c-0.562-0.269-1.345-0.268-2.415,0.115    c-1.441,0.516-2.807,8.36-3.027,9.828c-0.303,2.012-0.693,5.524,0.646,7.238c2.592,3.317,4.941-6.704,5.171-7.854    C47.211,102.155,48.699,96.354,46.358,95.236z M76.268,94.368c-0.112-0.025-0.216-0.042-0.315-0.05    c-4.937-0.388,2.054,22.243,6.395,16.707C84.759,107.949,79.895,95.189,76.268,94.368z" fill="#D80027"/>
	</g>
</g>
<g>
</g>
<g>
</g>
<g>
</g>
<g>
</g>
<g>
</g>
<g>
</g>
<g>
</g>
<g>
</g>
<g>
</g>
<g>
</g>
<g>
</g>
<g>
</g>
<g>
</g>
<g>
</g>
<g>
</g>
</svg>
