<?xml version="1.0" encoding="iso-8859-1"?>
<!-- Generator: Adobe Illustrator 18.1.1, SVG Export Plug-In . SVG Version: 6.00 Build 0)  -->
<svg xmlns="http://www.w3.org/2000/svg" xmlns:xlink="http://www.w3.org/1999/xlink" version="1.1" id="Capa_1" x="0px" y="0px" viewBox="0 0 492 492" style="enable-background:new 0 0 492 492;" xml:space="preserve" width="512px" height="512px">
<g>
	<g>
		<path d="M461,124H319L246,0l-73,124H31l71,122L31,368h142l73,124l73-124h142l-71-122L461,124z M246,88    l21,35h-42L246,88z M107,328l21-35l20,35H107z M128,199l-21-35h41L128,199z M246,404l-21-35h42L246,404z M293,328h-94l-46-82    l46-82h94l46,82L293,328z M344,328l20-35l21,35H344z M364,199l-20-35h41L364,199z" fill="#D80027"/>
	</g>
</g>
<g>
</g>
<g>
</g>
<g>
</g>
<g>
</g>
<g>
</g>
<g>
</g>
<g>
</g>
<g>
</g>
<g>
</g>
<g>
</g>
<g>
</g>
<g>
</g>
<g>
</g>
<g>
</g>
<g>
</g>
</svg>
