<?xml version="1.0" encoding="iso-8859-1"?>
<!-- Generator: Adobe Illustrator 16.0.0, SVG Export Plug-In . SVG Version: 6.00 Build 0)  -->
<!DOCTYPE svg PUBLIC "-//W3C//DTD SVG 1.1//EN" "http://www.w3.org/Graphics/SVG/1.1/DTD/svg11.dtd">
<svg xmlns="http://www.w3.org/2000/svg" xmlns:xlink="http://www.w3.org/1999/xlink" version="1.1" id="Capa_1" x="0px" y="0px" width="512px" height="512px" viewBox="0 0 949.971 949.97" style="enable-background:new 0 0 949.971 949.97;" xml:space="preserve">
<g>
	<g>
		<path d="M878.837,26.918c-8.1,14.6-8.5,31.9-11.6,47.9c-4.7,24.5-15.9,47.8-29.2,68.7c-4,6.2-27.399,46.5-36.6,45.9    c0,0-72.5-4.8-104,9.7c-6.101,2.8-16.101,11.3-22.9,17.5c-4.3,3.9-3,8.2,2.5,9.7c19.4,5,63.3,15.6,88.5,35.2    c48.8,38,71.101,79.8,79.2,98.4c2.3,5.3,6.5,5.9,9.5,1c6.9-11.3,18-31.7,20.6-50.1c3-21.7-5.8-42.9-15.399-62.2    c-1.8-3.6-5.9-12-9.3-18.7c-2.601-5.2-2.101-11.4,0.8-14.2c2.5-2.4,5.1-4.9,5.3-5.1c17.7-17,34.3-35.3,49.5-54.6    c19.2-24.4,35.9-52.8,42.5-83.5c2.9-13.4,2.8-28.5-5.3-40.2C929.638,13.218,892.337,2.418,878.837,26.918z" fill="#D80027"/>
		<path d="M17.837,906.519c41.1,26.3,89.5,34.5,137.5,29.2c28-3.101,56-11.801,81.7-23c136.601-59.4,436.3-219.801,540.8-305.9    c104.601-86.1,57.601-247.4-33.8-314c-91.399-66.6-294.899-72-328.6,27.4c-27.601,81.4-119.2,227.4-230.7,349.301    c-44.9,49.1-91.5,96.5-137.9,144.2c-12.4,12.699-24.6,25.6-35.4,39.6C-4.562,874.019-4.963,891.918,17.837,906.519z     M232.637,717.918c27.5-30,53.2-61.3,78.5-93.1c42.699-53.8,79.3-112.9,115.399-171.3c27.4-44.4,43.2-97.1,56.601-112.5    c21.399-24.8,61.699-24.4,70.5,11.5c5.899,24.3,3.8,47.899-3.301,70.5c-16,50.899-57.6,96.5-91.199,132.8    c-55.301,59.7-119.101,111.7-184.8,159.5c-17.6,12.8-91.2,55.1-103.3,67.6C191.737,761.418,212.837,739.719,232.637,717.918z" fill="#D80027"/>
	</g>
</g>
<g>
</g>
<g>
</g>
<g>
</g>
<g>
</g>
<g>
</g>
<g>
</g>
<g>
</g>
<g>
</g>
<g>
</g>
<g>
</g>
<g>
</g>
<g>
</g>
<g>
</g>
<g>
</g>
<g>
</g>
</svg>
